# xmcd CD database file
#
# Track frame offsets:
#	150
#	18740
#	36920
#	52862
#	75377
#	89217
#	105652
#	121232
#	138050
#	154902
#	169287
#	188237
#	201567
#	217750
#
# Disc length: 3112 seconds
#
# Revision: 1
# Processed by: cddbd v1.5.1PL0 Copyright (c) Steve Scherf et al.
# Submitted via: CDex 1.51
#
DISCID=be0c260e
DTITLE=JOANNA - 100 anos de Musica - CD 2
DYEAR=1993
DGENRE=Pop Brasil
TTITLE0=to fazendo falta
TTITLE1=agora eu sei
TTITLE2=lua branca
TTITLE3=amor bandido
TTITLE4=quarto de hotel
TTITLE5=felicidade
TTITLE6=amor alheio
TTITLE7=o mundo e um moinho - as rosas nao falam
TTITLE8=jura-me
TTITLE9=eu te amo
TTITLE10=alma coraçao e vida
TTITLE11=resposta - ouça
TTITLE12=nunca
TTITLE13=qualquer dia
EXTD=YEAR: 1993
EXTT0=
EXTT1=
EXTT2=
EXTT3=
EXTT4=
EXTT5=
EXTT6=
EXTT7=
EXTT8=
EXTT9=
EXTT10=
EXTT11=
EXTT12=
EXTT13=
PLAYORDER=
